<?xml version="1.0" encoding="UTF-8" standalone="no"?>
<!-- Created with Inkscape (http://www.inkscape.org/) -->

<svg
   xmlns:dc="http://purl.org/dc/elements/1.1/"
   xmlns:cc="http://creativecommons.org/ns#"
   xmlns:rdf="http://www.w3.org/1999/02/22-rdf-syntax-ns#"
   xmlns:svg="http://www.w3.org/2000/svg"
   xmlns="http://www.w3.org/2000/svg"
   xmlns:sodipodi="http://sodipodi.sourceforge.net/DTD/sodipodi-0.dtd"
   xmlns:inkscape="http://www.inkscape.org/namespaces/inkscape"
   width="12.108496mm"
   height="8.87012mm"
   viewBox="0 0 42.904119 31.429559"
   id="svg4316"
   version="1.1"
   inkscape:version="0.91 r13725"
   sodipodi:docname="bebe.svg">
  <defs
     id="defs4318" />
  <sodipodi:namedview
     id="base"
     pagecolor="#ffffff"
     bordercolor="#666666"
     borderopacity="1.0"
     inkscape:pageopacity="0.0"
     inkscape:pageshadow="2"
     inkscape:zoom="2.8"
     inkscape:cx="-47.902806"
     inkscape:cy="3.8577458"
     inkscape:document-units="px"
     inkscape:current-layer="layer1"
     showgrid="false"
     fit-margin-top="0"
     fit-margin-left="0"
     fit-margin-right="0"
     fit-margin-bottom="0"
     inkscape:window-width="1920"
     inkscape:window-height="1019"
     inkscape:window-x="0"
     inkscape:window-y="0"
     inkscape:window-maximized="1" />
  <metadata
     id="metadata4321">
    <rdf:RDF>
      <cc:Work
         rdf:about="">
        <dc:format>image/svg+xml</dc:format>
        <dc:type
           rdf:resource="http://purl.org/dc/dcmitype/StillImage" />
        <dc:title></dc:title>
      </cc:Work>
    </rdf:RDF>
  </metadata>
  <g
     inkscape:label="Capa 1"
     inkscape:groupmode="layer"
     id="layer1"
     transform="translate(-492.83366,-542.36171)">
    <g
       id="g4297"
       transform="translate(739.74766,49.250711)"
       style="fill:none">
      <path
         id="path4299"
         transform="translate(-246.914,493.589)"
         d="M 35.8574,0.0136196 C 32.6472,-0.17651 29.3609,1.62695 28.3105,5.24019 c -1.1245,3.86796 0.6432,7.55681 4.4024,9.18751 0.5702,0.2473 1.78,0.4501 2.6875,0.4531 5.5383,0.0173 9.18,-5.79124 6.7226,-10.72265 C 40.8059,1.51488 38.3543,0.16149 35.8574,0.0136196 Z M 32.2715,3.80073 c 1.2168,0 1.3281,0.0629 1.3281,0.75 0,0.6572 -0.1288,0.75 -1.0488,0.75 -0.5775,0 -1.0689,0.10086 -1.0899,0.22461 -0.021,0.12375 -0.059,0.63 -0.084,1.125 -0.0372,0.74235 -0.1884,0.91584 -0.8613,0.99414 -0.7659,0.0891 -0.8164,0.0228 -0.8164,-1.08398 0,-1.79052 0.9041,-2.75977 2.5723,-2.75977 z m 3.1289,3.59961 c 0.845,0 0.9004,0.0698 0.9004,1.15821 0,0.71883 -0.2377,1.46115 -0.6231,1.95115 -0.5044,0.6413 -0.8716,0.791 -1.9492,0.791 -1.2168,0 -1.3281,-0.0629 -1.3281,-0.75 0,-0.65717 0.1288,-0.74997 1.0488,-0.74997 1.025,0 1.0508,-0.0297 1.0508,-1.20117 0,-1.1333 0.0504,-1.19922 0.9004,-1.19922 z M 17.5508,10.2499 c -5.9303,0 -6.3732,0.0384 -7.543,0.6641 -3.44298,1.84 -4.78828,5.5283 -3.43358,9.3965 0.3158,0.9018 0.6681,2.1449 0.7832,2.7637 l 0.20899,1.125 -2.76367,0 c -2.7427,0 -2.77091,0.009 -3.78321,1.0214 C 0.18333,26.0568 0,26.467 0,27.4999 c 0,1.033 0.18333,1.4432 1.01953,2.2793 l 1.01954,1.0215 5.46093,0 5.4609,0 1.0196,-1.0215 c 1.0948,-1.0948 1.2514,-1.9697 0.7441,-4.1543 l -0.2617,-1.125 4.6191,-0.0508 c 2.5401,-0.0275 4.8486,-0.0604 5.1309,-0.0742 0.3903,-0.019 0.6774,0.546 1.1953,2.3536 0.71,2.4781 1.7332,3.9413 2.9082,4.1582 2.1838,0.4029 4.084,-1.1179 4.084,-3.2676 0,-0.9264 -2.7231,-10.3123 -3.6465,-12.5684 -0.727,-1.7763 -2.047,-3.2571 -3.7031,-4.1523 -1.1215,-0.6062 -1.6123,-0.6485 -7.5,-0.6485 z"
         inkscape:connector-curvature="0"
         style="fill:#C13A9C" />
      <path
         id="path4301"
         transform="translate(-219.073,493.111)"
         d="M 7.5486,1.74881e-4 C 4.45941,0.0194749 2.19994,1.42006 0.830775,4.15999 -1.33498,8.49392 0.892975,13.4459 5.66431,14.9026 8.70994,15.8324 12.4316,14.2034 14.2226,11.1568 14.8718,10.0522 14.963,9.62142 14.9629,7.60926 14.9629,5.70385 14.8508,5.09993 14.2962,4.01437 12.9843,1.44588 10.5229,-0.0184151 7.5486,1.74881e-4 Z"
         inkscape:connector-curvature="0"
         style="fill:#C13A9C" />
    </g>
  </g>
</svg>
