<?xml version="1.0" encoding="UTF-8" standalone="no"?>
<!-- Created with Inkscape (http://www.inkscape.org/) -->

<svg
   xmlns:dc="http://purl.org/dc/elements/1.1/"
   xmlns:cc="http://creativecommons.org/ns#"
   xmlns:rdf="http://www.w3.org/1999/02/22-rdf-syntax-ns#"
   xmlns:svg="http://www.w3.org/2000/svg"
   xmlns="http://www.w3.org/2000/svg"
   xmlns:sodipodi="http://sodipodi.sourceforge.net/DTD/sodipodi-0.dtd"
   xmlns:inkscape="http://www.inkscape.org/namespaces/inkscape"
   id="svg4262"
   version="1.1"
   inkscape:version="0.91 r13725"
   width="43.443031"
   height="54.92028"
   viewBox="0 0 43.443031 54.92028"
   sodipodi:docname="female-desconocida.svg">
  <metadata
     id="metadata4268">
    <rdf:RDF>
      <cc:Work
         rdf:about="">
        <dc:format>image/svg+xml</dc:format>
        <dc:type
           rdf:resource="http://purl.org/dc/dcmitype/StillImage" />
        <dc:title></dc:title>
      </cc:Work>
    </rdf:RDF>
  </metadata>
  <defs
     id="defs4266" />
  <sodipodi:namedview
     pagecolor="#ffffff"
     bordercolor="#666666"
     borderopacity="1"
     objecttolerance="10"
     gridtolerance="10"
     guidetolerance="10"
     inkscape:pageopacity="0"
     inkscape:pageshadow="2"
     inkscape:window-width="1920"
     inkscape:window-height="1019"
     id="namedview4264"
     showgrid="false"
     fit-margin-top="0"
     fit-margin-left="0"
     fit-margin-right="0"
     fit-margin-bottom="0"
     inkscape:zoom="1.3264"
     inkscape:cx="101.64626"
     inkscape:cy="-9.7437426"
     inkscape:window-x="0"
     inkscape:window-y="0"
     inkscape:window-maximized="1"
     inkscape:current-layer="svg4262" />
  <path
     style="fill:#C13A9C"
     d="M 22.291575,54.561839 C 22.156807,54.330779 21.851041,53.84475 21.6121,53.481771 18.405527,48.610648 14.864941,44.850298 11.60826,42.856989 10.781648,42.351048 9.129143,41.579889 8.359517,41.340927 7.996538,41.228226 7.672561,41.112272 7.639566,41.083252 c -0.03301,-0.029 0.01712,-0.369544 0.111322,-0.756721 0.571628,-2.34901 0.125301,-5.243417 -1.198047,-7.76931 C 6.086556,31.667211 5.705458,31.07171 4.349032,29.113554 2.421849,26.331448 0.873685,23.372273 0.38655,21.53962 0.203514,20.851024 0,19.243753 0,18.48681 0,16.824654 0.526318,14.566136 1.39742,12.490231 2.505102,9.8505399 4.809413,6.7914936 7.341554,4.5991908 9.956572,2.3351377 13.257682,0.92210157 17.20221,0.37834477 c 6.749746,-0.930458 11.796101,-0.1586325 16.14786,2.46976223 2.00518,1.2110952 3.978088,3.0684649 5.460051,5.1402966 0.72341,1.0113492 1.616043,2.8170344 1.976043,3.9973104 0.49169,1.612005 0.61205,2.562525 0.60808,4.802181 -0.004,2.306628 0.0358,2.106744 -0.79131,3.959771 -0.606443,1.358546 -0.519279,2.381564 0.33738,3.959771 0.74768,1.377422 1.95057,3.763805 2.19237,4.349396 0.35936,0.87027 0.39248,1.180153 0.17226,1.611823 -0.30221,0.592367 -0.84879,0.893585 -1.87121,1.031217 -0.70425,0.0948 -0.73609,0.178777 -0.73609,1.941704 0,1.502787 -0.003,1.525903 -0.21999,1.75858 -0.12099,0.129676 -0.368475,0.31192 -0.549964,0.404988 -0.368495,0.188964 -0.390994,0.291034 -0.190856,0.865844 0.189275,0.54361 0.06189,0.990432 -0.56358,1.976759 -0.485574,0.765727 -0.499071,0.80377 -0.484363,1.365223 0.07694,2.937105 0.07472,3.03805 -0.07277,3.305389 -0.215273,0.390228 -0.50064,0.624676 -1.063138,0.873436 -1.086804,0.480637 -2.945045,0.557625 -5.522842,0.228814 -1.70538,-0.217529 -2.450595,-0.198165 -3.369501,0.08756 -0.650895,0.202384 -1.32075,0.629517 -1.653048,1.054063 -0.132584,0.16939 -0.735129,1.297926 -1.33899,2.507856 -1.04472,2.093264 -1.26927,2.558868 -1.973395,4.091761 -0.475398,1.034961 -0.992524,2.362747 -0.992524,2.548427 0,0.327868 -0.168859,0.266903 -0.411113,-0.148434 z m 0.631098,-19.400813 c 1.243147,-0.313291 2.145151,-1.494062 2.227457,-2.915859 0.113815,-1.966025 -0.948106,-3.371806 -2.771178,-3.668519 -2.07096,-0.337057 -3.823712,1.169079 -3.843107,3.30237 -0.02207,2.428744 1.941966,3.898149 4.386828,3.282008 z m 1.542982,-9.023673 c 0.006,-1.33016 0.316762,-2.431169 0.987222,-3.497512 0.339193,-0.539478 1.046391,-1.401411 1.871181,-2.280604 0.24892,-0.265338 0.972299,-1.2948 1.268603,-1.805384 1.454164,-2.505799 1.156447,-5.582315 -0.712321,-7.360914 -1.326113,-1.2621259 -3.048232,-1.828262 -5.573629,-1.8322956 -1.984343,-0.00317 -3.721012,0.3618375 -5.469813,1.1496276 -0.757859,0.341395 -0.743004,0.317582 -0.556833,0.892609 0.08927,0.275712 0.366909,1.15466 0.616985,1.953211 0.250075,0.798556 0.482079,1.481102 0.515569,1.516771 0.03348,0.03566 0.19801,-0.0275 0.365609,-0.140339 0.1676,-0.112855 0.680902,-0.339101 1.140677,-0.502766 0.791482,-0.281743 0.89946,-0.297679 2.029838,-0.299633 1.15615,-0.002 1.210283,0.0063 1.712495,0.263025 0.346975,0.177358 0.607095,0.390992 0.785995,0.645541 0.253273,0.360364 0.267375,0.425366 0.266971,1.230824 -3.53e-4,0.765505 -0.02568,0.898672 -0.253571,1.334344 -0.332373,0.635425 -0.652273,1.090956 -1.513973,2.155877 -1.874891,2.317045 -2.499785,3.824353 -2.499785,6.029736 0,0.611885 0.02639,1.138913 0.05866,1.171178 0.03225,0.03225 1.160801,0.05866 2.507856,0.05866 l 2.44919,0 0.0032,-0.681959 z"
     id="path4383"
     inkscape:connector-curvature="0" />
</svg>
