<?xml version="1.0" encoding="UTF-8" standalone="no"?>
<!-- Created with Inkscape (http://www.inkscape.org/) -->

<svg
   xmlns:dc="http://purl.org/dc/elements/1.1/"
   xmlns:cc="http://creativecommons.org/ns#"
   xmlns:rdf="http://www.w3.org/1999/02/22-rdf-syntax-ns#"
   xmlns:svg="http://www.w3.org/2000/svg"
   xmlns="http://www.w3.org/2000/svg"
   xmlns:sodipodi="http://sodipodi.sourceforge.net/DTD/sodipodi-0.dtd"
   xmlns:inkscape="http://www.inkscape.org/namespaces/inkscape"
   width="38.480309"
   height="76.381996"
   viewBox="0 0 38.480308 76.382004"
   id="svg4316"
   version="1.1"
   inkscape:version="0.91 r13725"
   sodipodi:docname="gril.svg">
  <defs
     id="defs4318" />
  <sodipodi:namedview
     id="base"
     pagecolor="#ffffff"
     bordercolor="#666666"
     borderopacity="1.0"
     inkscape:pageopacity="0.0"
     inkscape:pageshadow="2"
     inkscape:zoom="2.8"
     inkscape:cx="-45.869791"
     inkscape:cy="46.409153"
     inkscape:document-units="px"
     inkscape:current-layer="layer1"
     showgrid="false"
     fit-margin-top="0"
     fit-margin-left="0"
     fit-margin-right="0"
     fit-margin-bottom="0"
     inkscape:window-width="1920"
     inkscape:window-height="1019"
     inkscape:window-x="0"
     inkscape:window-y="0"
     inkscape:window-maximized="1"
     units="px" />
  <metadata
     id="metadata4321">
    <rdf:RDF>
      <cc:Work
         rdf:about="">
        <dc:format>image/svg+xml</dc:format>
        <dc:type
           rdf:resource="http://purl.org/dc/dcmitype/StillImage" />
        <dc:title></dc:title>
      </cc:Work>
    </rdf:RDF>
  </metadata>
  <g
     inkscape:label="Capa 1"
     inkscape:groupmode="layer"
     id="layer1"
     transform="translate(-527.81459,-539.96067)">
    <g
       id="g4202">
      <path
         inkscape:connector-curvature="0"
         id="path5067"
         d="m 548.42259,540.02485 c -2.93814,0.44212 1.3462,2.98934 2.0666,0.5316 -0.53947,-0.47833 -1.39227,-0.4454 -2.0666,-0.5316 z m -3.1234,0.046 c -3.09648,0.63456 -5.95177,3.36046 -6.55699,6.49698 -0.71794,3.37286 0.44974,7.1364 3.47891,8.99978 4.62278,3.70743 12.32319,0.48459 13.33256,-5.2033 0.2548,-2.15932 0.0537,-4.4184 -0.88188,-6.40168 -1.13791,1.55163 -2.6807,3.19389 -4.6798,3.33143 -1.45359,-1.99915 5.09982,-3.15824 2.18567,-5.11745 -2.25845,1.03321 -6.63788,2.28449 -6.26684,-1.8487 l -0.13308,-0.13363 -0.47855,-0.12345 0,2e-5 z m 2.3245,18.53082 c -4.06206,-0.0649 -8.51563,0.60259 -11.31656,3.86484 -5.70412,5.45022 -7.20238,13.57979 -8.42646,21.03294 -0.59658,3.51004 5.27821,4.46825 5.40779,0.60156 0.85892,-4.39891 1.56941,-8.92096 3.42162,-13.02944 0.20632,2.07398 -0.63909,4.97725 -0.85567,7.36554 -0.62651,4.88378 -1.29263,9.79521 -1.22629,14.72726 0.43052,1.74068 2.68966,1.92542 4.11317,2.6719 0.19678,6.02807 0.001,12.0837 0.5755,18.08811 0.56945,3.21601 5.94872,2.96743 6.32727,-0.25287 0.58613,-5.56675 0.22701,-11.18827 0.32483,-16.78014 0.86168,0.20848 2.74814,-0.60782 2.3552,0.85527 0.095,5.3118 -0.25765,10.65394 0.32759,15.93992 0.46964,3.5757 6.60072,3.12451 6.59676,-0.48268 0.35172,-5.62473 -0.10867,-11.27938 0.30963,-16.89812 1.6759,-1.50158 5.32993,-2.14782 4.13477,-5.50855 -0.29876,-6.599 -1.57226,-13.10187 -2.19965,-19.66424 2.10189,4.36772 2.76384,9.2475 3.74518,13.9372 1.38047,3.52104 6.44145,0.83436 4.9746,-2.43151 -1.09361,-7.63876 -3.0938,-15.94977 -9.24032,-21.14411 -2.60695,-2.14302 -6.037,-2.91522 -9.34896,-2.89288 z"
         style="fill:#C13A9C"/>
      <path
         inkscape:connector-curvature="0"
         id="path5069"
         d="m 547.30806,539.96086 c -5.73212,-0.38872 -10.00233,6.24716 -7.85696,11.39745 1.66838,4.62563 7.76512,7.05734 11.98716,4.28941 2.66164,-1.50701 4.60131,-4.45298 4.12218,-7.59738 0.34561,-4.47865 -3.87792,-8.31008 -8.25238,-8.08948 z"
         style="fill:#C13A9C"/>
    </g>
  </g>
</svg>
