<?xml version="1.0" encoding="UTF-8" standalone="no"?>
<!-- Created with Inkscape (http://www.inkscape.org/) -->

<svg
   xmlns:dc="http://purl.org/dc/elements/1.1/"
   xmlns:cc="http://creativecommons.org/ns#"
   xmlns:rdf="http://www.w3.org/1999/02/22-rdf-syntax-ns#"
   xmlns:svg="http://www.w3.org/2000/svg"
   xmlns="http://www.w3.org/2000/svg"
   xmlns:sodipodi="http://sodipodi.sourceforge.net/DTD/sodipodi-0.dtd"
   xmlns:inkscape="http://www.inkscape.org/namespaces/inkscape"
   width="65.846031"
   height="109.517"
   viewBox="0 0 65.846031 109.51701"
   id="svg4316"
   version="1.1"
   inkscape:version="0.91 r13725"
   sodipodi:docname="grandmale.svg">
  <defs
     id="defs4318" />
  <sodipodi:namedview
     id="base"
     pagecolor="#ffffff"
     bordercolor="#666666"
     borderopacity="1.0"
     inkscape:pageopacity="0.0"
     inkscape:pageshadow="2"
     inkscape:zoom="2.8"
     inkscape:cx="12.390056"
     inkscape:cy="76.075296"
     inkscape:document-units="px"
     inkscape:current-layer="layer1"
     showgrid="false"
     fit-margin-top="0"
     fit-margin-left="0"
     fit-margin-right="0"
     fit-margin-bottom="0"
     inkscape:window-width="956"
     inkscape:window-height="1019"
     inkscape:window-x="0"
     inkscape:window-y="0"
     inkscape:window-maximized="0"
     units="px" />
  <metadata
     id="metadata4321">
    <rdf:RDF>
      <cc:Work
         rdf:about="">
        <dc:format>image/svg+xml</dc:format>
        <dc:type
           rdf:resource="http://purl.org/dc/dcmitype/StillImage" />
        <dc:title></dc:title>
      </cc:Work>
    </rdf:RDF>
  </metadata>
  <g
     inkscape:label="Capa 1"
     inkscape:groupmode="layer"
     id="layer1"
     transform="translate(-521.34046,-536.49181)">
    <path
       style="fill:#213D8C"
       inkscape:connector-curvature="0"
       d="m 558.48916,536.49195 c -2.6206,0 -3.0211,0.0813 -4.8516,0.98242 -2.4855,1.22358 -4.7307,3.5898 -5.6836,5.99219 -0.5197,1.31028 -0.6894,2.33733 -0.6894,4.27535 -0.006,2.2449 0.1058,2.7909 0.9394,4.5606 1.6091,3.4163 4.6336,5.807 8.2442,6.5176 1.8293,0.3598 2.0284,0.3597 4.0058,-0.006 7.47601,-1.382 11.60161,-9.5894 8.18561,-16.28519 -1.006,-1.97199 -3.3699,-4.22527 -5.4277,-5.17578 -1.64231,-0.75858 -2.20981,-0.86133 -4.72271,-0.86133 z m -9.9922,19.34956 c -1.4862,0 -5.4202,1.2311 -7.6641,2.3985 -4.7403,2.4662 -8.0168,5.9218 -10.44722,11.0176 -1.2253,2.5688 -2.79102,7.726 -2.79102,9.1972 0,0.4493 -0.39761,0.8484 -1.35351,1.3555 -1.6668,0.8843 -3.3041,2.6555 -4.1543,4.4941 -0.6386,1.3813 -0.64156,1.4979 -0.72656,29.88681 -0.0436,14.6214 -0.0124,26.6006 0.0664,28.5076 1.22046,0.262 2.47797,0.58 3.85352,0.967 0.30897,0.029 0.53842,0.059 0.81641,0.088 l 0,-27.9279 c 0,-25.39171 0.0476,-28.29391 0.49023,-29.40041 l 0.49219,-1.2265 0.46484,0.959 c 0.6226,1.2856 2.00033,2.08 3.61133,2.082 1.12559,10e-4 1.47659,-0.1642 2.49019,-1.1777 l 1.1797,-1.1797 0.2852,0.748 c 0.1567,0.4122 0.2851,1.06 0.2851,1.4395 0,0.3795 0.2812,1.0457 0.6231,1.4804 0.8918,1.1337 2.6759,1.1159 3.5879,-0.0351 0.5483,-0.6921 0.6303,-1.0921 0.5058,-2.4922 -0.1974,-2.2208 -1.3433,-4.3919 -3.1992,-6.0605 -0.8342,-0.75 -1.5176,-1.6157 -1.5176,-1.9238 0,-1.1874 1.2903,-5.1319 2.336,-7.1426 1.2513,-2.406 4.0943,-5.4497 5.9961,-6.4199 l 1.2676,-0.6465 0,14.2324 c 0,12.698 -0.0621,14.6154 -0.584,17.7813 -0.7013,4.2537 -1.3966,10.44911 -1.8008,16.05661 -0.4742,6.5778 -0.9897,21.4988 -0.8711,25.1956 0.098,3.053 0.1912,3.537 0.9297,4.795 0.8592,1.463 2.3368,2.579 3.9336,2.97 2.3339,0.573 5.1473,-0.56 6.6289,-2.67 l 0.914,-1.3 0.1973,-8.0004 c 0.3643,-14.8506 0.8306,-22.4038 1.9238,-31.09961 0.6248,-4.9695 0.4859,-4.6965 2.3282,-4.5898 l 1.5507,0.0898 0.5118,3.75 c 1.07691,7.89751 1.74201,19.36501 2.11131,36.35201 0.073,3.358 0.1138,3.551 0.9902,4.798 2.807,3.995 8.5109,3.65 10.7422,-0.65 l 0.8555,-1.65 -0.1836,-8.8969 c -0.3071,-14.8911 -1.0283,-25.1073 -2.3496,-33.25201 -0.5946,-3.6649 -0.667,-5.3606 -0.752,-17.83 -0.091,-13.3736 -0.0777,-13.7651 0.459,-13.2793 0.9089,0.8225 2.9977,4.7089 3.9863,7.4179 1.1226,3.0759 2.2305,7.649 2.6856,11.0899 0.419,3.167 0.736,4.015 1.8555,4.957 1.2411,1.0443 3.4346,1.0443 4.6757,0 1.5622,-1.3145 1.7177,-2.1342 1.1563,-6.1015 -0.2402,-1.6972 -0.5471,-3.3721 -0.9063,-5.0059 -0.2194,-0.6531 -0.4276,-1.331 -0.4863,-1.7422 -0.0276,-0.193 -0.0464,-0.3869 -0.0723,-0.5801 -0.1014,-0.3912 -0.2088,-0.7741 -0.3164,-1.1582 -0.007,-0.0123 -0.0128,-0.0248 -0.0195,-0.0371 -0.4834,-0.8875 -0.9644,-1.8125 -1.1465,-2.8066 -0.0975,-0.5324 -0.1848,-1.066 -0.2754,-1.5996 -0.774,-2.0653 -1.6342,-3.9564 -2.5664,-5.5742 -3.3553,-5.8233 -8.1099,-10.0207 -11.9492,-10.5469 -1.2486,-0.1712 -1.4347,-0.1022 -2.5898,0.9414 -4.3345,3.9159 -11.12171,4.0337 -15.73831,0.2734 -0.8913,-0.726 -1.9372,-1.3183 -2.3262,-1.3183 z m -23.21679,87.82431 c -1.05839,-0.1 -2.26955,-0.205 -3.7793,-0.326 -0.0143,-10e-4 -0.0438,-0.003 -0.0586,-0.004 3.5e-4,0.002 -3.6e-4,0.037 0,0.039 0.16945,0.688 0.57112,1.196 1.08203,1.502 0.54035,0.099 1.0828,0.194 1.62891,0.281 0.39369,-0.077 0.78789,-0.252 1.15234,-0.539 l 0.46289,-0.363 c -0.36827,-0.287 -0.19933,-0.386 0.30664,-0.369 -0.27549,-0.079 -0.53064,-0.147 -0.79491,-0.221 z m 0.79492,0.221 c 0.007,0.002 0.0149,0.004 0.0215,0.006 l 0,-0.004 c -0.006,-10e-4 -0.0159,-0.002 -0.0215,-0.002 z m 58.97068,-67.59021 c 0.005,0.0169 0.0104,0.0339 0.0156,0.0508 -0.004,-0.0156 -0.007,-0.0313 -0.0117,-0.0469 -10e-4,-0.002 -0.003,-0.002 -0.004,-0.004 z"
       id="path4294"
       sodipodi:nodetypes="csccccccscccscsccccccscccccccscccsssccscscccccccsccscccccccccssccccccccccccccccccccccccccccccccc" />
  </g>
</svg>
