<?xml version="1.0" encoding="UTF-8" standalone="no"?>
<!-- Created with Inkscape (http://www.inkscape.org/) -->

<svg
   xmlns:dc="http://purl.org/dc/elements/1.1/"
   xmlns:cc="http://creativecommons.org/ns#"
   xmlns:rdf="http://www.w3.org/1999/02/22-rdf-syntax-ns#"
   xmlns:svg="http://www.w3.org/2000/svg"
   xmlns="http://www.w3.org/2000/svg"
   xmlns:sodipodi="http://sodipodi.sourceforge.net/DTD/sodipodi-0.dtd"
   xmlns:inkscape="http://www.inkscape.org/namespaces/inkscape"
   width="65.846031"
   height="109.517"
   viewBox="0 0 65.846031 109.51701"
   id="svg4316"
   version="1.1"
   inkscape:version="0.91 r13725"
   sodipodi:docname="grandfemale.svg">
  <defs
     id="defs4318" />
  <sodipodi:namedview
     id="base"
     pagecolor="#ffffff"
     bordercolor="#666666"
     borderopacity="1.0"
     inkscape:pageopacity="0.0"
     inkscape:pageshadow="2"
     inkscape:zoom="2.8"
     inkscape:cx="12.390056"
     inkscape:cy="76.075296"
     inkscape:document-units="px"
     inkscape:current-layer="layer1"
     showgrid="false"
     fit-margin-top="0"
     fit-margin-left="0"
     fit-margin-right="0"
     fit-margin-bottom="0"
     inkscape:window-width="956"
     inkscape:window-height="1019"
     inkscape:window-x="0"
     inkscape:window-y="0"
     inkscape:window-maximized="0"
     units="px" />
  <metadata
     id="metadata4321">
    <rdf:RDF>
      <cc:Work
         rdf:about="">
        <dc:format>image/svg+xml</dc:format>
        <dc:type
           rdf:resource="http://purl.org/dc/dcmitype/StillImage" />
        <dc:title></dc:title>
      </cc:Work>
    </rdf:RDF>
  </metadata>
  <g
     inkscape:label="Capa 1"
     inkscape:groupmode="layer"
     id="layer1"
     transform="translate(-521.34046,-536.49181)">
    <path
       style="fill:#C13A9C"
       inkscape:connector-curvature="0"
       d="m 557.77746,536.89422 c -2.30527,-0.0901 -4.57912,1.17826 -5.62388,3.46505 -0.31347,0.6861 -0.57654,1.41327 -0.57722,1.61625 -0.005,0.24468 0.48564,0.14841 1.45761,-0.28291 2.20313,-0.97747 5.87779,-1.08546 8.23572,-0.24199 2.18922,0.78317 2.01,0.76755 2.01196,0.18188 0.003,-0.99699 -1.28395,-2.95974 -2.45354,-3.74179 -0.94879,-0.63437 -2.0028,-0.95551 -3.05065,-0.99649 z m -0.20343,5.04111 c -2.51871,-0.008 -2.97014,0.0858 -4.84317,1.00212 -2.25399,1.1026 -3.9729,2.81031 -4.9203,4.89036 -2.90322,6.37394 0.65477,13.68791 7.37751,15.16426 5.49022,1.20572 10.96206,-2.07934 12.56605,-7.54557 0.62539,-2.13102 0.44509,-5.23476 -0.41928,-7.21282 -0.88191,-2.01811 -3.1914,-4.40666 -5.25109,-5.4298 -1.50103,-0.74578 -2.09959,-0.86045 -4.50972,-0.86855 z m 9.75721,18.15708 c -0.68436,0.045 -1.27118,0.38246 -1.9859,1.02587 -2.63352,2.37046 -6.52911,3.53635 -9.77153,2.92579 -2.27177,-0.42788 -4.55925,-1.56625 -5.91753,-2.94437 -1.22239,-1.2403 -1.7464,-1.31327 -4.42225,-0.62875 -7.1506,1.82908 -13.13756,6.83725 -16.44141,13.75571 -1.09439,2.29164 -2.63007,7.65134 -2.63524,9.19717 -0.002,0.63921 -0.26231,1.02271 -1.00622,1.48196 -1.50714,0.93053 -2.90439,2.49928 -3.61128,4.05347 -0.61983,1.3623 -0.63017,1.90554 -0.72857,28.25974 -0.10781,30.08394 -0.26333,28.00181 2.08742,28.00973 2.26116,0.007 2.12313,1.73734 2.2207,-27.43568 0.0785,-23.46691 0.1357,-26.16755 0.59011,-27.05658 0.27766,-0.54327 0.55198,-1.04151 0.60767,-1.10501 0.0563,-0.0635 0.53394,0.25199 1.06112,0.69998 1.24243,1.0558 3.49889,1.14635 4.72074,0.189 l 0.8128,-0.63535 0.28855,0.71552 c 0.15885,0.39429 0.36885,1.22053 0.46531,1.83513 0.33972,2.15571 2.68475,3.04704 3.9439,1.49863 1.28185,-1.57626 0.0422,-5.77033 -2.35118,-7.95396 -1.39499,-1.27273 -1.4056,-1.3891 -0.42864,-5.001 0.90322,-3.33938 2.46127,-6.06887 4.69869,-8.23413 1.79369,-1.73602 4.24547,-3.49291 4.24396,-3.04104 -3.6e-4,0.10871 -0.49344,2.79778 -1.09345,5.97402 -3.56629,18.87669 -5.17016,32.69519 -4.46885,38.48368 0.26184,2.16029 1.35202,3.58511 3.39831,4.43928 l 1.37248,0.57222 -0.23427,10.66649 c -0.17142,7.82109 -0.13796,10.96216 0.12511,11.77095 0.45527,1.39889 2.07406,2.99439 3.61391,3.56016 1.96392,0.72178 4.42221,0.11896 5.884,-1.44144 1.40344,-1.49774 1.64223,-2.67376 1.66071,-8.2021 0.0103,-2.85342 0.11396,-7.13519 0.23051,-9.51524 l 0.21317,-4.32655 2.71072,0.009 2.70877,0.009 0.15539,2.16415 c 0.0852,1.19051 0.22165,5.63766 0.30402,9.88337 0.14437,7.45501 0.17488,7.76323 0.89286,9.00121 0.85986,1.48372 1.70294,2.11515 3.47462,2.60029 2.79193,0.76475 6.08652,-1.13676 6.85155,-3.95363 0.36146,-1.33121 0.29808,-12.42245 -0.11019,-19.24179 l -0.15963,-2.67746 1.94973,-1.026 c 2.97262,-1.56387 3.19703,-2.18852 3.16556,-8.75258 -0.0338,-6.95071 -1.76108,-20.57886 -4.29508,-33.86585 -0.80337,-4.21268 -0.8,-4.2981 0.18184,-3.37663 3.41026,3.20097 6.69823,10.61584 7.33866,16.55087 0.10951,1.0151 0.3786,2.29629 0.59846,2.84597 0.52929,1.32299 2.08569,2.25207 3.78284,2.25881 1.16181,0.005 1.51557,-0.164 2.59058,-1.2351 l 1.2461,-1.24167 -0.19007,-2.54267 c -0.90181,-12.03892 -8.30285,-23.82149 -17.76163,-28.27766 -1.11076,-0.52331 -1.89349,-0.77017 -2.57795,-0.72517 z"
       id="path4282" />
  </g>
</svg>
