<?xml version="1.0" encoding="UTF-8" standalone="no"?>
<!-- Created with Inkscape (http://www.inkscape.org/) -->

<svg
   xmlns:dc="http://purl.org/dc/elements/1.1/"
   xmlns:cc="http://creativecommons.org/ns#"
   xmlns:rdf="http://www.w3.org/1999/02/22-rdf-syntax-ns#"
   xmlns:svg="http://www.w3.org/2000/svg"
   xmlns="http://www.w3.org/2000/svg"
   xmlns:sodipodi="http://sodipodi.sourceforge.net/DTD/sodipodi-0.dtd"
   xmlns:inkscape="http://www.inkscape.org/namespaces/inkscape"
   width="61.665146"
   height="134.91811"
   viewBox="0 0 61.665146 134.91812"
   id="svg4316"
   version="1.1"
   inkscape:version="0.91 r13725"
   sodipodi:docname="male.svg">
  <defs
     id="defs4318" />
  <sodipodi:namedview
     id="base"
     pagecolor="#ffffff"
     bordercolor="#666666"
     borderopacity="1.0"
     inkscape:pageopacity="0.0"
     inkscape:pageshadow="2"
     inkscape:zoom="2.8"
     inkscape:cx="7.8102095"
     inkscape:cy="100.60251"
     inkscape:document-units="px"
     inkscape:current-layer="layer1"
     showgrid="false"
     fit-margin-top="0"
     fit-margin-left="0"
     fit-margin-right="0"
     fit-margin-bottom="0"
     inkscape:window-width="956"
     inkscape:window-height="1019"
     inkscape:window-x="0"
     inkscape:window-y="0"
     inkscape:window-maximized="0"
     units="px" />
  <metadata
     id="metadata4321">
    <rdf:RDF>
      <cc:Work
         rdf:about="">
        <dc:format>image/svg+xml</dc:format>
        <dc:type
           rdf:resource="http://purl.org/dc/dcmitype/StillImage" />
        <dc:title></dc:title>
      </cc:Work>
    </rdf:RDF>
  </metadata>
  <g
     inkscape:label="Capa 1"
     inkscape:groupmode="layer"
     id="layer1"
     transform="translate(-508.07252,-535.61792)">
    <path
       style="fill:#213D8C"
       inkscape:connector-curvature="0"
       d="m 539.14552,535.62059 c -0.32,-0.006 -0.642,-0.002 -0.964,0.0137 -2.343,0.11646 -4.709,0.82635 -6.873,2.1875 -3.777,2.37488 -5.742,5.94328 -5.756,10.45114 -0.01,3.6021 0.95,6.0116 3.42,8.5723 2.055,2.1309 3.91,3.1978 6.791,3.9062 5.843,1.437 12.359,-1.5082 15.129,-6.8378 1.11,-2.1374 1.224,-2.6499 1.224,-5.5391 0,-2.8807 -0.116,-3.40658 -1.209,-5.50977 -2.372,-4.56597 -6.951,-7.14997 -11.762,-7.24414 z m -0.04,29.13674 c -6.95,-0.002 -13.64,0.1517 -14.867,0.3418 -4.707,0.7294 -9.507,3.9912 -11.986,8.1465 -2.936,4.9197 -4.18,10.6663 -4.18,19.2988 0,7.7684 1.443,19.0767 3.178,24.9082 0.744,2.5021 2.201,3.6387 4.66,3.6387 1.571,0 2.036,-0.1731 3.225,-1.2051 1.275,-1.1071 1.386,-1.3571 1.375,-3.0801 0,-1.0318 -0.383,-3.6985 -0.836,-5.9258 -3.205,-15.757 -2.5,-29.446 1.758,-34.166 l 1.105,-1.2246 0.02,44.3691 c 0.01,30.1511 0.144,44.8021 0.412,45.7171 0.572,1.951 2.694,4.013 4.758,4.625 3.193,0.946 6.602,-0.155 8.498,-2.746 l 1.025,-1.405 0.1,-26.902 0.101,-26.9004 1.387,0.1074 1.387,0.1094 0.185,26.9666 0.186,26.967 1.043,1.297 c 3.151,3.914 9.426,3.718 12.17,-0.381 l 1.095,-1.637 0,-45.0349 c 0,-35.8687 0.09,-45.0072 0.465,-44.8945 0.717,0.2183 2.844,3.7601 3.463,5.7656 1.981,6.4204 1.707,17.1749 -0.756,29.7969 -1.129,5.789 -1.148,6.4859 -0.219,7.8223 0.977,1.4036 2.113,1.9324 4.176,1.9472 2.365,0.017 4.117,-1.4951 4.694,-4.0488 3.46,-15.3418 3.974,-29.8564 1.351,-38.1953 -1.609,-5.1161 -5.454,-10.0502 -9.424,-12.0977 -3.376,-1.7411 -5.69,-1.9754 -19.545,-1.9804 z"
       id="path4178" />
  </g>
</svg>
